  <diagram name="PÃ¡gina-1" id="GZTUtYAtLmb8CdipmBVA">
      <root>
        <mxCell id="0" />
        <mxCell id="1" parent="0" />
          <mxGeometry x="180" y="-140" width="390" height="931" as="geometry" />
        </mxCell>
        </mxCell>
        <mxCell id="lsGLsEjRRWgy3Efg2B9T-23" value="ShoppingCart" style="swimlane;fontStyle=1;align=center;verticalAlign=top;childLayout=stackLayout;horizontal=1;startSize=26;horizontalStack=0;resizeParent=1;resizeParentMax=0;resizeLast=0;collapsible=1;marginBottom=0;whiteSpace=wrap;html=1;" parent="1" vertex="1">
          <mxGeometry y="386" width="160" height="86" as="geometry" />
        </mxCell>
        <mxCell id="lsGLsEjRRWgy3Efg2B9T-24" value="+ field: type" style="text;strokeColor=none;fillColor=none;align=left;verticalAlign=top;spacingLeft=4;spacingRight=4;overflow=hidden;rotatable=0;points=[[0,0.5],[1,0.5]];portConstraint=eastwest;whiteSpace=wrap;html=1;" parent="lsGLsEjRRWgy3Efg2B9T-23" vertex="1">
          <mxGeometry y="26" width="160" height="26" as="geometry" />
        </mxCell>
        <mxCell id="lsGLsEjRRWgy3Efg2B9T-25" value="" style="line;strokeWidth=1;fillColor=none;align=left;verticalAlign=middle;spacingTop=-1;spacingLeft=3;spacingRight=3;rotatable=0;labelPosition=right;points=[];portConstraint=eastwest;strokeColor=inherit;" parent="lsGLsEjRRWgy3Efg2B9T-23" vertex="1">
          <mxGeometry y="52" width="160" height="8" as="geometry" />
        </mxCell>
        <mxCell id="lsGLsEjRRWgy3Efg2B9T-26" value="+ method(type): type" style="text;strokeColor=none;fillColor=none;align=left;verticalAlign=top;spacingLeft=4;spacingRight=4;overflow=hidden;rotatable=0;points=[[0,0.5],[1,0.5]];portConstraint=eastwest;whiteSpace=wrap;html=1;" parent="lsGLsEjRRWgy3Efg2B9T-23" vertex="1">
          <mxGeometry y="60" width="160" height="26" as="geometry" />
        </mxCell>
        <mxCell id="lsGLsEjRRWgy3Efg2B9T-27" value="&lt;div&gt;&amp;lt;&amp;lt;Entity - AggregateRoot&amp;gt;&amp;gt;&lt;span style=&quot;background-color: transparent; color: light-dark(rgb(0, 0, 0), rgb(255, 255, 255));&quot;&gt;&lt;/span&gt;&lt;/div&gt;&lt;div&gt;&lt;span style=&quot;background-color: transparent; color: light-dark(rgb(0, 0, 0), rgb(255, 255, 255));&quot;&gt;Customer&amp;nbsp;&lt;/span&gt;&lt;/div&gt;" style="swimlane;fontStyle=1;align=center;verticalAlign=top;childLayout=stackLayout;horizontal=1;startSize=40;horizontalStack=0;resizeParent=1;resizeParentMax=0;resizeLast=0;collapsible=1;marginBottom=0;whiteSpace=wrap;html=1;" parent="1" vertex="1">
          <mxGeometry x="310" y="220" width="240" height="542" as="geometry" />
        </mxCell>
        <mxCell id="lsGLsEjRRWgy3Efg2B9T-28" value="- id: CustomerId" style="text;strokeColor=none;fillColor=none;align=left;verticalAlign=top;spacingLeft=4;spacingRight=4;overflow=hidden;rotatable=0;points=[[0,0.5],[1,0.5]];portConstraint=eastwest;whiteSpace=wrap;html=1;" parent="lsGLsEjRRWgy3Efg2B9T-27" vertex="1">
          <mxGeometry y="40" width="240" height="26" as="geometry" />
        </mxCell>
        <mxCell id="0FfHhmurZJwmchbnIuFu-1" value="- fullName: FullName" style="text;strokeColor=none;fillColor=none;align=left;verticalAlign=top;spacingLeft=4;spacingRight=4;overflow=hidden;rotatable=0;points=[[0,0.5],[1,0.5]];portConstraint=eastwest;whiteSpace=wrap;html=1;" parent="lsGLsEjRRWgy3Efg2B9T-27" vertex="1">
          <mxGeometry y="66" width="240" height="26" as="geometry" />
        </mxCell>
        <mxCell id="IrXDIPh7EPaMqDA0Avj6-1" value="- birthDate: BirthDate" style="text;strokeColor=none;fillColor=none;align=left;verticalAlign=top;spacingLeft=4;spacingRight=4;overflow=hidden;rotatable=0;points=[[0,0.5],[1,0.5]];portConstraint=eastwest;whiteSpace=wrap;html=1;" parent="lsGLsEjRRWgy3Efg2B9T-27" vertex="1">
          <mxGeometry y="92" width="240" height="26" as="geometry" />
        </mxCell>
        <mxCell id="lsGLsEjRRWgy3Efg2B9T-44" value="- email: Email" style="text;strokeColor=none;fillColor=none;align=left;verticalAlign=top;spacingLeft=4;spacingRight=4;overflow=hidden;rotatable=0;points=[[0,0.5],[1,0.5]];portConstraint=eastwest;whiteSpace=wrap;html=1;" parent="lsGLsEjRRWgy3Efg2B9T-27" vertex="1">
          <mxGeometry y="118" width="240" height="26" as="geometry" />
        </mxCell>
        <mxCell id="IrXDIPh7EPaMqDA0Avj6-2" value="- phone: Phone" style="text;strokeColor=none;fillColor=none;align=left;verticalAlign=top;spacingLeft=4;spacingRight=4;overflow=hidden;rotatable=0;points=[[0,0.5],[1,0.5]];portConstraint=eastwest;whiteSpace=wrap;html=1;" parent="lsGLsEjRRWgy3Efg2B9T-27" vertex="1">
          <mxGeometry y="144" width="240" height="26" as="geometry" />
        </mxCell>
        <mxCell id="lsGLsEjRRWgy3Efg2B9T-45" value="- document: Document" style="text;strokeColor=none;fillColor=none;align=left;verticalAlign=top;spacingLeft=4;spacingRight=4;overflow=hidden;rotatable=0;points=[[0,0.5],[1,0.5]];portConstraint=eastwest;whiteSpace=wrap;html=1;" parent="lsGLsEjRRWgy3Efg2B9T-27" vertex="1">
          <mxGeometry y="170" width="240" height="26" as="geometry" />
        </mxCell>
        <mxCell id="lsGLsEjRRWgy3Efg2B9T-47" value="- promotionNotificationsAllowed: Boolean" style="text;strokeColor=none;fillColor=none;align=left;verticalAlign=top;spacingLeft=4;spacingRight=4;overflow=hidden;rotatable=0;points=[[0,0.5],[1,0.5]];portConstraint=eastwest;whiteSpace=wrap;html=1;" parent="lsGLsEjRRWgy3Efg2B9T-27" vertex="1">
          <mxGeometry y="196" width="240" height="26" as="geometry" />
        </mxCell>
        <mxCell id="IrXDIPh7EPaMqDA0Avj6-3" value="- archived: Boolean" style="text;strokeColor=none;fillColor=none;align=left;verticalAlign=top;spacingLeft=4;spacingRight=4;overflow=hidden;rotatable=0;points=[[0,0.5],[1,0.5]];portConstraint=eastwest;whiteSpace=wrap;html=1;" parent="lsGLsEjRRWgy3Efg2B9T-27" vertex="1">
          <mxGeometry y="222" width="240" height="26" as="geometry" />
        </mxCell>
        <mxCell id="IrXDIPh7EPaMqDA0Avj6-6" value="- registeredAt: OffsetDateTime" style="text;strokeColor=none;fillColor=none;align=left;verticalAlign=top;spacingLeft=4;spacingRight=4;overflow=hidden;rotatable=0;points=[[0,0.5],[1,0.5]];portConstraint=eastwest;whiteSpace=wrap;html=1;" parent="lsGLsEjRRWgy3Efg2B9T-27" vertex="1">
          <mxGeometry y="248" width="240" height="26" as="geometry" />
        </mxCell>
        <mxCell id="IrXDIPh7EPaMqDA0Avj6-8" value="- archivedAt: OffsetDateTime" style="text;strokeColor=none;fillColor=none;align=left;verticalAlign=top;spacingLeft=4;spacingRight=4;overflow=hidden;rotatable=0;points=[[0,0.5],[1,0.5]];portConstraint=eastwest;whiteSpace=wrap;html=1;" parent="lsGLsEjRRWgy3Efg2B9T-27" vertex="1">
          <mxGeometry y="274" width="240" height="26" as="geometry" />
        </mxCell>
        <mxCell id="IrXDIPh7EPaMqDA0Avj6-13" value="- loyaltyPoints: LoyaltyPoints" style="text;strokeColor=none;fillColor=none;align=left;verticalAlign=top;spacingLeft=4;spacingRight=4;overflow=hidden;rotatable=0;points=[[0,0.5],[1,0.5]];portConstraint=eastwest;whiteSpace=wrap;html=1;" parent="lsGLsEjRRWgy3Efg2B9T-27" vertex="1">
          <mxGeometry y="300" width="240" height="26" as="geometry" />
        </mxCell>
        <mxCell id="lsGLsEjRRWgy3Efg2B9T-29" value="" style="line;strokeWidth=1;fillColor=none;align=left;verticalAlign=middle;spacingTop=-1;spacingLeft=3;spacingRight=3;rotatable=0;labelPosition=right;points=[];portConstraint=eastwest;strokeColor=inherit;" parent="lsGLsEjRRWgy3Efg2B9T-27" vertex="1">
          <mxGeometry y="326" width="240" height="8" as="geometry" />
        </mxCell>
        <mxCell id="lsGLsEjRRWgy3Efg2B9T-30" value="+ addLoyaltyPoints(LoyaltyPoints): void" style="text;strokeColor=none;fillColor=none;align=left;verticalAlign=top;spacingLeft=4;spacingRight=4;overflow=hidden;rotatable=0;points=[[0,0.5],[1,0.5]];portConstraint=eastwest;whiteSpace=wrap;html=1;" parent="lsGLsEjRRWgy3Efg2B9T-27" vertex="1">
          <mxGeometry y="334" width="240" height="26" as="geometry" />
        </mxCell>
        <mxCell id="8MQEZoxUqFhfqiZca8yh-1" value="+ archive(): void" style="text;strokeColor=none;fillColor=none;align=left;verticalAlign=top;spacingLeft=4;spacingRight=4;overflow=hidden;rotatable=0;points=[[0,0.5],[1,0.5]];portConstraint=eastwest;whiteSpace=wrap;html=1;" parent="lsGLsEjRRWgy3Efg2B9T-27" vertex="1">
          <mxGeometry y="360" width="240" height="26" as="geometry" />
        </mxCell>
        <mxCell id="8MQEZoxUqFhfqiZca8yh-2" value="+ enablePromotionNotifications(): void" style="text;strokeColor=none;fillColor=none;align=left;verticalAlign=top;spacingLeft=4;spacingRight=4;overflow=hidden;rotatable=0;points=[[0,0.5],[1,0.5]];portConstraint=eastwest;whiteSpace=wrap;html=1;" parent="lsGLsEjRRWgy3Efg2B9T-27" vertex="1">
          <mxGeometry y="386" width="240" height="26" as="geometry" />
        </mxCell>
        <mxCell id="lsGLsEjRRWgy3Efg2B9T-46" value="+ disablePromotionNotifications(): void" style="text;strokeColor=none;fillColor=none;align=left;verticalAlign=top;spacingLeft=4;spacingRight=4;overflow=hidden;rotatable=0;points=[[0,0.5],[1,0.5]];portConstraint=eastwest;whiteSpace=wrap;html=1;" parent="lsGLsEjRRWgy3Efg2B9T-27" vertex="1">
          <mxGeometry y="412" width="240" height="26" as="geometry" />
        </mxCell>
        <mxCell id="8MQEZoxUqFhfqiZca8yh-3" value="+ changeName(FullName): void" style="text;strokeColor=none;fillColor=none;align=left;verticalAlign=top;spacingLeft=4;spacingRight=4;overflow=hidden;rotatable=0;points=[[0,0.5],[1,0.5]];portConstraint=eastwest;whiteSpace=wrap;html=1;" parent="lsGLsEjRRWgy3Efg2B9T-27" vertex="1">
          <mxGeometry y="438" width="240" height="26" as="geometry" />
        </mxCell>
        <mxCell id="8MQEZoxUqFhfqiZca8yh-4" value="+ changeEmail(Email): void" style="text;strokeColor=none;fillColor=none;align=left;verticalAlign=top;spacingLeft=4;spacingRight=4;overflow=hidden;rotatable=0;points=[[0,0.5],[1,0.5]];portConstraint=eastwest;whiteSpace=wrap;html=1;" parent="lsGLsEjRRWgy3Efg2B9T-27" vertex="1">
          <mxGeometry y="464" width="240" height="26" as="geometry" />
        </mxCell>
        <mxCell id="8MQEZoxUqFhfqiZca8yh-5" value="+ changePhone(Phone): void" style="text;strokeColor=none;fillColor=none;align=left;verticalAlign=top;spacingLeft=4;spacingRight=4;overflow=hidden;rotatable=0;points=[[0,0.5],[1,0.5]];portConstraint=eastwest;whiteSpace=wrap;html=1;" parent="lsGLsEjRRWgy3Efg2B9T-27" vertex="1">
          <mxGeometry y="490" width="240" height="26" as="geometry" />
        </mxCell>
        <mxCell id="qNsiMf-YWHq0yiiy-Iy_-15" value="+ changeAddress(Address): void" style="text;strokeColor=none;fillColor=none;align=left;verticalAlign=top;spacingLeft=4;spacingRight=4;overflow=hidden;rotatable=0;points=[[0,0.5],[1,0.5]];portConstraint=eastwest;whiteSpace=wrap;html=1;" parent="lsGLsEjRRWgy3Efg2B9T-27" vertex="1">
          <mxGeometry y="516" width="240" height="26" as="geometry" />
        </mxCell>
        <mxCell id="lsGLsEjRRWgy3Efg2B9T-31" value="&lt;div&gt;&amp;lt;&amp;lt;Entity - AggregateRoot&amp;gt;&amp;gt;&lt;/div&gt;Order" style="swimlane;fontStyle=1;align=center;verticalAlign=top;childLayout=stackLayout;horizontal=1;startSize=40;horizontalStack=0;resizeParent=1;resizeParentMax=0;resizeLast=0;collapsible=1;marginBottom=0;whiteSpace=wrap;html=1;" parent="1" vertex="1">
        </mxCell>
          <mxGeometry y="40" width="352" height="26" as="geometry" />
        </mxCell>
          <mxGeometry y="66" width="352" height="26" as="geometry" />
        </mxCell>
          <mxGeometry y="92" width="352" height="26" as="geometry" />
        </mxCell>
          <mxGeometry y="118" width="352" height="26" as="geometry" />
        </mxCell>
          <mxGeometry y="144" width="352" height="26" as="geometry" />
        </mxCell>
          <mxGeometry y="170" width="352" height="26" as="geometry" />
        </mxCell>
          <mxGeometry y="196" width="352" height="26" as="geometry" />
        </mxCell>
          <mxGeometry y="222" width="352" height="26" as="geometry" />
        </mxCell>
        </mxCell>
        </mxCell>
        </mxCell>
          <mxGeometry y="308" width="352" height="26" as="geometry" />
        </mxCell>
          <mxGeometry y="334" width="352" height="26" as="geometry" />
        </mxCell>
          <mxGeometry y="360" width="352" height="26" as="geometry" />
        </mxCell>
          <mxGeometry y="386" width="352" height="26" as="geometry" />
        </mxCell>
          <mxGeometry y="412" width="352" height="26" as="geometry" />
        </mxCell>
          <mxGeometry y="438" width="352" height="26" as="geometry" />
        </mxCell>
          <mxGeometry y="464" width="352" height="26" as="geometry" />
        </mxCell>
          <mxGeometry y="490" width="352" height="26" as="geometry" />
        </mxCell>
          <mxGeometry y="516" width="352" height="26" as="geometry" />
        </mxCell>
          <mxGeometry y="542" width="352" height="26" as="geometry" />
        </mxCell>
          <mxGeometry y="568" width="352" height="26" as="geometry" />
        </mxCell>
          <mxGeometry y="594" width="352" height="26" as="geometry" />
        </mxCell>
          <mxGeometry y="620" width="352" height="26" as="geometry" />
        </mxCell>
        <mxCell id="lsGLsEjRRWgy3Efg2B9T-35" value="&lt;div&gt;&amp;lt;&amp;lt;Value Object&amp;gt;&amp;gt;&lt;/div&gt;Address" style="swimlane;fontStyle=1;align=center;verticalAlign=top;childLayout=stackLayout;horizontal=1;startSize=40;horizontalStack=0;resizeParent=1;resizeParentMax=0;resizeLast=0;collapsible=1;marginBottom=0;whiteSpace=wrap;html=1;" parent="1" vertex="1">
          <mxGeometry x="870" y="-84.3" width="160" height="256" as="geometry" />
        </mxCell>
        <mxCell id="lsGLsEjRRWgy3Efg2B9T-36" value="- street: String" style="text;strokeColor=none;fillColor=none;align=left;verticalAlign=top;spacingLeft=4;spacingRight=4;overflow=hidden;rotatable=0;points=[[0,0.5],[1,0.5]];portConstraint=eastwest;whiteSpace=wrap;html=1;" parent="lsGLsEjRRWgy3Efg2B9T-35" vertex="1">
          <mxGeometry y="40" width="160" height="26" as="geometry" />
        </mxCell>
        <mxCell id="qNsiMf-YWHq0yiiy-Iy_-8" value="- number: String" style="text;strokeColor=none;fillColor=none;align=left;verticalAlign=top;spacingLeft=4;spacingRight=4;overflow=hidden;rotatable=0;points=[[0,0.5],[1,0.5]];portConstraint=eastwest;whiteSpace=wrap;html=1;" parent="lsGLsEjRRWgy3Efg2B9T-35" vertex="1">
          <mxGeometry y="66" width="160" height="26" as="geometry" />
        </mxCell>
        <mxCell id="qNsiMf-YWHq0yiiy-Iy_-9" value="- complement: String" style="text;strokeColor=none;fillColor=none;align=left;verticalAlign=top;spacingLeft=4;spacingRight=4;overflow=hidden;rotatable=0;points=[[0,0.5],[1,0.5]];portConstraint=eastwest;whiteSpace=wrap;html=1;" parent="lsGLsEjRRWgy3Efg2B9T-35" vertex="1">
          <mxGeometry y="92" width="160" height="26" as="geometry" />
        </mxCell>
        <mxCell id="qNsiMf-YWHq0yiiy-Iy_-10" value="- neighbohood: String" style="text;strokeColor=none;fillColor=none;align=left;verticalAlign=top;spacingLeft=4;spacingRight=4;overflow=hidden;rotatable=0;points=[[0,0.5],[1,0.5]];portConstraint=eastwest;whiteSpace=wrap;html=1;" parent="lsGLsEjRRWgy3Efg2B9T-35" vertex="1">
          <mxGeometry y="118" width="160" height="26" as="geometry" />
        </mxCell>
        <mxCell id="qNsiMf-YWHq0yiiy-Iy_-11" value="- city: String" style="text;strokeColor=none;fillColor=none;align=left;verticalAlign=top;spacingLeft=4;spacingRight=4;overflow=hidden;rotatable=0;points=[[0,0.5],[1,0.5]];portConstraint=eastwest;whiteSpace=wrap;html=1;" parent="lsGLsEjRRWgy3Efg2B9T-35" vertex="1">
          <mxGeometry y="144" width="160" height="26" as="geometry" />
        </mxCell>
        <mxCell id="qNsiMf-YWHq0yiiy-Iy_-12" value="- state: String" style="text;strokeColor=none;fillColor=none;align=left;verticalAlign=top;spacingLeft=4;spacingRight=4;overflow=hidden;rotatable=0;points=[[0,0.5],[1,0.5]];portConstraint=eastwest;whiteSpace=wrap;html=1;" parent="lsGLsEjRRWgy3Efg2B9T-35" vertex="1">
          <mxGeometry y="170" width="160" height="26" as="geometry" />
        </mxCell>
        <mxCell id="qNsiMf-YWHq0yiiy-Iy_-13" value="- zipCode: ZipCode" style="text;strokeColor=none;fillColor=none;align=left;verticalAlign=top;spacingLeft=4;spacingRight=4;overflow=hidden;rotatable=0;points=[[0,0.5],[1,0.5]];portConstraint=eastwest;whiteSpace=wrap;html=1;" parent="lsGLsEjRRWgy3Efg2B9T-35" vertex="1">
          <mxGeometry y="196" width="160" height="26" as="geometry" />
        </mxCell>
        <mxCell id="lsGLsEjRRWgy3Efg2B9T-37" value="" style="line;strokeWidth=1;fillColor=none;align=left;verticalAlign=middle;spacingTop=-1;spacingLeft=3;spacingRight=3;rotatable=0;labelPosition=right;points=[];portConstraint=eastwest;strokeColor=inherit;" parent="lsGLsEjRRWgy3Efg2B9T-35" vertex="1">
          <mxGeometry y="222" width="160" height="8" as="geometry" />
        </mxCell>
        <mxCell id="lsGLsEjRRWgy3Efg2B9T-38" value="+ method(type): type" style="text;strokeColor=none;fillColor=none;align=left;verticalAlign=top;spacingLeft=4;spacingRight=4;overflow=hidden;rotatable=0;points=[[0,0.5],[1,0.5]];portConstraint=eastwest;whiteSpace=wrap;html=1;" parent="lsGLsEjRRWgy3Efg2B9T-35" vertex="1">
          <mxGeometry y="230" width="160" height="26" as="geometry" />
        </mxCell>
        <mxCell id="lsGLsEjRRWgy3Efg2B9T-70" style="edgeStyle=orthogonalEdgeStyle;rounded=0;orthogonalLoop=1;jettySize=auto;html=1;entryX=0;entryY=0.5;entryDx=0;entryDy=0;" parent="1" source="lsGLsEjRRWgy3Efg2B9T-39" target="lsGLsEjRRWgy3Efg2B9T-63" edge="1">
          <mxGeometry relative="1" as="geometry" />
        </mxCell>
        <mxCell id="lsGLsEjRRWgy3Efg2B9T-77" value="- product" style="edgeLabel;html=1;align=center;verticalAlign=middle;resizable=0;points=[];" parent="lsGLsEjRRWgy3Efg2B9T-70" vertex="1" connectable="0">
          <mxGeometry x="-0.0289" y="-1" relative="1" as="geometry">
            <mxPoint x="221" y="96" as="offset" />
          </mxGeometry>
        </mxCell>
        <mxCell id="lsGLsEjRRWgy3Efg2B9T-39" value="ShoppingCartItem" style="swimlane;fontStyle=1;align=center;verticalAlign=top;childLayout=stackLayout;horizontal=1;startSize=26;horizontalStack=0;resizeParent=1;resizeParentMax=0;resizeLast=0;collapsible=1;marginBottom=0;whiteSpace=wrap;html=1;" parent="1" vertex="1">
          <mxGeometry y="743" width="160" height="86" as="geometry" />
        </mxCell>
        <mxCell id="lsGLsEjRRWgy3Efg2B9T-40" value="- quantity: Integer" style="text;strokeColor=none;fillColor=none;align=left;verticalAlign=top;spacingLeft=4;spacingRight=4;overflow=hidden;rotatable=0;points=[[0,0.5],[1,0.5]];portConstraint=eastwest;whiteSpace=wrap;html=1;" parent="lsGLsEjRRWgy3Efg2B9T-39" vertex="1">
          <mxGeometry y="26" width="160" height="26" as="geometry" />
        </mxCell>
        <mxCell id="lsGLsEjRRWgy3Efg2B9T-41" value="" style="line;strokeWidth=1;fillColor=none;align=left;verticalAlign=middle;spacingTop=-1;spacingLeft=3;spacingRight=3;rotatable=0;labelPosition=right;points=[];portConstraint=eastwest;strokeColor=inherit;" parent="lsGLsEjRRWgy3Efg2B9T-39" vertex="1">
          <mxGeometry y="52" width="160" height="8" as="geometry" />
        </mxCell>
        <mxCell id="lsGLsEjRRWgy3Efg2B9T-42" value="+ method(type): type" style="text;strokeColor=none;fillColor=none;align=left;verticalAlign=top;spacingLeft=4;spacingRight=4;overflow=hidden;rotatable=0;points=[[0,0.5],[1,0.5]];portConstraint=eastwest;whiteSpace=wrap;html=1;" parent="lsGLsEjRRWgy3Efg2B9T-39" vertex="1">
          <mxGeometry y="60" width="160" height="26" as="geometry" />
        </mxCell>
        <mxCell id="lsGLsEjRRWgy3Efg2B9T-61" value="&lt;div&gt;&amp;lt;&amp;lt;Value Object&amp;gt;&amp;gt;&lt;/div&gt;Product" style="swimlane;fontStyle=1;align=center;verticalAlign=top;childLayout=stackLayout;horizontal=1;startSize=40;horizontalStack=0;resizeParent=1;resizeParentMax=0;resizeLast=0;collapsible=1;marginBottom=0;whiteSpace=wrap;html=1;" parent="1" vertex="1">
          <mxGeometry x="336" y="1178" width="160" height="178" as="geometry" />
        </mxCell>
          <mxGeometry y="40" width="160" height="26" as="geometry" />
        </mxCell>
        <mxCell id="lsGLsEjRRWgy3Efg2B9T-62" value="- name: ProductName" style="text;strokeColor=none;fillColor=none;align=left;verticalAlign=top;spacingLeft=4;spacingRight=4;overflow=hidden;rotatable=0;points=[[0,0.5],[1,0.5]];portConstraint=eastwest;whiteSpace=wrap;html=1;" parent="lsGLsEjRRWgy3Efg2B9T-61" vertex="1">
          <mxGeometry y="66" width="160" height="26" as="geometry" />
        </mxCell>
        <mxCell id="lsGLsEjRRWgy3Efg2B9T-63" value="- price: Money" style="text;strokeColor=none;fillColor=none;align=left;verticalAlign=top;spacingLeft=4;spacingRight=4;overflow=hidden;rotatable=0;points=[[0,0.5],[1,0.5]];portConstraint=eastwest;whiteSpace=wrap;html=1;" parent="lsGLsEjRRWgy3Efg2B9T-61" vertex="1">
          <mxGeometry y="92" width="160" height="26" as="geometry" />
        </mxCell>
          <mxGeometry y="118" width="160" height="26" as="geometry" />
        </mxCell>
        <mxCell id="lsGLsEjRRWgy3Efg2B9T-64" value="" style="line;strokeWidth=1;fillColor=none;align=left;verticalAlign=middle;spacingTop=-1;spacingLeft=3;spacingRight=3;rotatable=0;labelPosition=right;points=[];portConstraint=eastwest;strokeColor=inherit;" parent="lsGLsEjRRWgy3Efg2B9T-61" vertex="1">
          <mxGeometry y="144" width="160" height="8" as="geometry" />
        </mxCell>
        <mxCell id="lsGLsEjRRWgy3Efg2B9T-65" value="+ checkOutOfStock(): void" style="text;strokeColor=none;fillColor=none;align=left;verticalAlign=top;spacingLeft=4;spacingRight=4;overflow=hidden;rotatable=0;points=[[0,0.5],[1,0.5]];portConstraint=eastwest;whiteSpace=wrap;html=1;" parent="lsGLsEjRRWgy3Efg2B9T-61" vertex="1">
          <mxGeometry y="152" width="160" height="26" as="geometry" />
        </mxCell>
        <mxCell id="lsGLsEjRRWgy3Efg2B9T-71" style="edgeStyle=orthogonalEdgeStyle;rounded=0;orthogonalLoop=1;jettySize=auto;html=1;entryX=1;entryY=0.5;entryDx=0;entryDy=0;exitX=0;exitY=0.5;exitDx=0;exitDy=0;" parent="1" source="lsGLsEjRRWgy3Efg2B9T-67" target="lsGLsEjRRWgy3Efg2B9T-63" edge="1">
          <mxGeometry relative="1" as="geometry" />
        </mxCell>
        <mxCell id="lsGLsEjRRWgy3Efg2B9T-66" value="&amp;lt;&amp;lt;Entity&amp;gt;&amp;gt;&lt;br&gt;OrderItem" style="swimlane;fontStyle=1;align=center;verticalAlign=top;childLayout=stackLayout;horizontal=1;startSize=34;horizontalStack=0;resizeParent=1;resizeParentMax=0;resizeLast=0;collapsible=1;marginBottom=0;whiteSpace=wrap;html=1;" parent="1" vertex="1">
          <mxGeometry x="870" y="1236" width="204" height="250" as="geometry" />
        </mxCell>
        <mxCell id="lsGLsEjRRWgy3Efg2B9T-67" value="- id: OrderId" style="text;strokeColor=none;fillColor=none;align=left;verticalAlign=top;spacingLeft=4;spacingRight=4;overflow=hidden;rotatable=0;points=[[0,0.5],[1,0.5]];portConstraint=eastwest;whiteSpace=wrap;html=1;" parent="lsGLsEjRRWgy3Efg2B9T-66" vertex="1">
          <mxGeometry y="34" width="204" height="26" as="geometry" />
        </mxCell>
          <mxGeometry y="60" width="204" height="26" as="geometry" />
        </mxCell>
          <mxGeometry y="86" width="204" height="26" as="geometry" />
        </mxCell>
          <mxGeometry y="112" width="204" height="26" as="geometry" />
        </mxCell>
          <mxGeometry y="138" width="204" height="26" as="geometry" />
        </mxCell>
          <mxGeometry y="164" width="204" height="26" as="geometry" />
        </mxCell>
          <mxGeometry y="190" width="204" height="26" as="geometry" />
        </mxCell>
        <mxCell id="lsGLsEjRRWgy3Efg2B9T-68" value="" style="line;strokeWidth=1;fillColor=none;align=left;verticalAlign=middle;spacingTop=-1;spacingLeft=3;spacingRight=3;rotatable=0;labelPosition=right;points=[];portConstraint=eastwest;strokeColor=inherit;" parent="lsGLsEjRRWgy3Efg2B9T-66" vertex="1">
          <mxGeometry y="216" width="204" height="8" as="geometry" />
        </mxCell>
        <mxCell id="lsGLsEjRRWgy3Efg2B9T-69" value="~ changeQuantity(Quantity): void" style="text;strokeColor=none;fillColor=none;align=left;verticalAlign=top;spacingLeft=4;spacingRight=4;overflow=hidden;rotatable=0;points=[[0,0.5],[1,0.5]];portConstraint=eastwest;whiteSpace=wrap;html=1;" parent="lsGLsEjRRWgy3Efg2B9T-66" vertex="1">
          <mxGeometry y="224" width="204" height="26" as="geometry" />
        </mxCell>
        <mxCell id="lsGLsEjRRWgy3Efg2B9T-81" value="1 - O sinal de -, indica que Ã© privado;&lt;div&gt;&lt;br&gt;2 - O sinal de diamante preenchido, indica que Ã© uma composiÃ§Ã£o, ou seja, caso excluÃ­mos o customer, serÃ¡ deletado o address.&lt;/div&gt;&lt;div&gt;&lt;br&gt;&lt;/div&gt;&lt;div&gt;3 - o sinal ~, indica que Ã© um package private, onde sÃ³ seria acessÃ­vel pelo pai (Order)&lt;/div&gt;" style="rounded=1;whiteSpace=wrap;html=1;align=left;" parent="1" vertex="1">
          <mxGeometry x="60" y="-380" width="370" height="120" as="geometry" />
        </mxCell>
        <mxCell id="lsGLsEjRRWgy3Efg2B9T-83" value="" style="points=[];aspect=fixed;html=1;align=center;shadow=0;dashed=0;fillColor=#FF6A00;strokeColor=none;shape=mxgraph.alibaba_cloud.nlp-ie_text_information_extraction;" parent="1" vertex="1">
          <mxGeometry x="402.6" y="-390" width="27.4" height="27.4" as="geometry" />
        </mxCell>
        <mxCell id="IrXDIPh7EPaMqDA0Avj6-5" value="" style="group" parent="1" vertex="1" connectable="0">
          <mxGeometry x="230" y="390" width="80" height="35" as="geometry" />
        </mxCell>
        <mxCell id="lsGLsEjRRWgy3Efg2B9T-57" style="edgeStyle=orthogonalEdgeStyle;rounded=0;orthogonalLoop=1;jettySize=auto;html=1;entryX=0;entryY=0.5;entryDx=0;entryDy=0;" parent="IrXDIPh7EPaMqDA0Avj6-5" source="lsGLsEjRRWgy3Efg2B9T-23" target="lsGLsEjRRWgy3Efg2B9T-47" edge="1">
          <mxGeometry relative="1" as="geometry" />
        </mxCell>
        <mxCell id="lsGLsEjRRWgy3Efg2B9T-84" value="0.*" style="text;html=1;align=center;verticalAlign=middle;whiteSpace=wrap;rounded=0;" parent="1" vertex="1">
          <mxGeometry x="914" y="1200" width="34" height="30" as="geometry" />
        </mxCell>
        <mxCell id="lsGLsEjRRWgy3Efg2B9T-75" style="edgeStyle=orthogonalEdgeStyle;rounded=0;orthogonalLoop=1;jettySize=auto;html=1;entryX=0.5;entryY=0;entryDx=0;entryDy=0;" parent="1" source="lsGLsEjRRWgy3Efg2B9T-23" target="lsGLsEjRRWgy3Efg2B9T-39" edge="1">
          <mxGeometry relative="1" as="geometry" />
        </mxCell>
        <mxCell id="lsGLsEjRRWgy3Efg2B9T-76" value="- items" style="edgeLabel;html=1;align=center;verticalAlign=middle;resizable=0;points=[];" parent="lsGLsEjRRWgy3Efg2B9T-75" vertex="1" connectable="0">
          <mxGeometry x="0.0337" y="1" relative="1" as="geometry">
            <mxPoint x="19" y="111" as="offset" />
          </mxGeometry>
        </mxCell>
        <mxCell id="lsGLsEjRRWgy3Efg2B9T-85" value="0.*" style="text;html=1;align=center;verticalAlign=middle;whiteSpace=wrap;rounded=0;" parent="1" vertex="1">
          <mxGeometry x="50" y="710" width="30" height="30" as="geometry" />
        </mxCell>
        <mxCell id="lsGLsEjRRWgy3Efg2B9T-55" style="edgeStyle=orthogonalEdgeStyle;rounded=0;orthogonalLoop=1;jettySize=auto;html=1;entryX=1;entryY=0.5;entryDx=0;entryDy=0;exitX=0;exitY=0.5;exitDx=0;exitDy=0;" parent="1" source="ZbJWRD8eEI1Ra9pvJPfs-4" target="lsGLsEjRRWgy3Efg2B9T-30" edge="1">
          <mxGeometry relative="1" as="geometry">
            <mxPoint x="688" y="512" as="sourcePoint" />
          </mxGeometry>
        </mxCell>
        <mxCell id="qNsiMf-YWHq0yiiy-Iy_-14" value="- address" style="edgeLabel;html=1;align=center;verticalAlign=middle;resizable=0;points=[];" parent="1" vertex="1" connectable="0">
          <mxGeometry x="940" y="80" as="geometry" />
        </mxCell>
          <mxGeometry relative="1" as="geometry">
            <Array as="points">
              <mxPoint x="1230" />
            </Array>
          </mxGeometry>
        </mxCell>
          <mxGeometry x="0.3437" y="-1" relative="1" as="geometry">
            <mxPoint x="-98" y="9" as="offset" />
          </mxGeometry>
        </mxCell>
        </mxCell>
        </mxCell>
        </mxCell>
        </mxCell>
        </mxCell>
        </mxCell>
        </mxCell>
          <mxGeometry y="38" width="160" height="26" as="geometry" />
        </mxCell>
          <mxGeometry y="64" width="160" height="26" as="geometry" />
        </mxCell>
          <mxGeometry y="90" width="160" height="26" as="geometry" />
        </mxCell>
        </mxCell>
        </mxCell>
          <mxGeometry relative="1" as="geometry">
            <Array as="points">
              <mxPoint x="685" />
            </Array>
          </mxGeometry>
        </mxCell>
          <mxGeometry x="0.5852" relative="1" as="geometry">
            <mxPoint x="141" y="-126" as="offset" />
          </mxGeometry>
        </mxCell>
          <mxGeometry relative="1" as="geometry">
            <Array as="points">
              <mxPoint x="800" y="410" />
              <mxPoint x="689" y="410" />
            </Array>
          </mxGeometry>
        </mxCell>
          <mxGeometry x="0.8327" y="3" relative="1" as="geometry">
            <mxPoint x="25" y="17" as="offset" />
          </mxGeometry>
        </mxCell>
          <mxGeometry relative="1" as="geometry">
            <Array as="points">
              <mxPoint x="1110" y="410" />
            </Array>
          </mxGeometry>
        </mxCell>
          <mxGeometry x="-0.2578" y="2" relative="1" as="geometry">
          </mxGeometry>
        </mxCell>
          <mxGeometry x="1280" y="795" width="200" height="128" as="geometry" />
        </mxCell>
          <mxGeometry width="200" height="20" as="geometry" />
        </mxCell>
          <mxGeometry relative="1" as="geometry" />
        </mxCell>
          <mxGeometry y="20" width="200" height="14" as="geometry" />
        </mxCell>
          <mxGeometry y="34" width="200" height="8" as="geometry" />
        </mxCell>
          <mxGeometry y="42" width="200" height="16" as="geometry" />
        </mxCell>
          <mxGeometry y="58" width="200" height="16" as="geometry" />
        </mxCell>
          <mxGeometry y="74" width="200" height="16" as="geometry" />
        </mxCell>
          <mxGeometry y="90" width="200" height="16" as="geometry" />
        </mxCell>
          <mxGeometry y="106" width="200" height="16" as="geometry" />
        </mxCell>
          <mxGeometry y="122" width="200" height="6" as="geometry" />
        </mxCell>
          <mxGeometry relative="1" as="geometry" />
        </mxCell>
          <mxGeometry x="0.1281" y="4" relative="1" as="geometry">
            <mxPoint x="35" y="-8" as="offset" />
          </mxGeometry>
        </mxCell>
        </mxCell>
          <mxGeometry width="200" height="20" as="geometry" />
        </mxCell>
          <mxGeometry relative="1" as="geometry" />
        </mxCell>
          <mxGeometry y="20" width="200" height="14" as="geometry" />
        </mxCell>
          <mxGeometry y="34" width="200" height="8" as="geometry" />
        </mxCell>
          <mxGeometry y="42" width="200" height="16" as="geometry" />
        </mxCell>
          <mxGeometry y="58" width="200" height="16" as="geometry" />
        </mxCell>
          <mxGeometry y="74" width="200" height="6" as="geometry" />
        </mxCell>
        <mxCell id="lsGLsEjRRWgy3Efg2B9T-72" style="edgeStyle=orthogonalEdgeStyle;rounded=0;orthogonalLoop=1;jettySize=auto;html=1;startArrow=diamondThin;startFill=1;startSize=9;entryX=0.365;entryY=0.009;entryDx=0;entryDy=0;entryPerimeter=0;" parent="1" target="lsGLsEjRRWgy3Efg2B9T-66" edge="1">
          <mxGeometry relative="1" as="geometry">
            <mxPoint x="944" y="1170" as="sourcePoint" />
            <mxPoint x="944" y="1210" as="targetPoint" />
            <Array as="points" />
          </mxGeometry>
        </mxCell>
        <mxCell id="lsGLsEjRRWgy3Efg2B9T-73" value="- items" style="edgeLabel;html=1;align=center;verticalAlign=middle;resizable=0;points=[];" parent="lsGLsEjRRWgy3Efg2B9T-72" vertex="1" connectable="0">
          <mxGeometry x="0.0811" y="1" relative="1" as="geometry">
            <mxPoint x="23" y="9" as="offset" />
          </mxGeometry>
        </mxCell>
          <mxGeometry relative="1" as="geometry" />
        </mxCell>
          <mxGeometry x="0.5162" y="1" relative="1" as="geometry">
            <mxPoint x="-18" y="-10" as="offset" />
          </mxGeometry>
        </mxCell>
          <mxGeometry x="591" y="-139" width="119" height="30" as="geometry" />
        </mxCell>
          <mxGeometry x="181" y="-139" width="149" height="39" as="geometry" />
        </mxCell>
          <mxGeometry x="350" y="-130" width="160" height="256" as="geometry" />
        </mxCell>
          <mxGeometry y="40" width="160" height="26" as="geometry" />
        </mxCell>
          <mxGeometry y="66" width="160" height="26" as="geometry" />
        </mxCell>
          <mxGeometry y="92" width="160" height="26" as="geometry" />
        </mxCell>
          <mxGeometry y="118" width="160" height="26" as="geometry" />
        </mxCell>
          <mxGeometry y="144" width="160" height="26" as="geometry" />
        </mxCell>
          <mxGeometry y="170" width="160" height="26" as="geometry" />
        </mxCell>
          <mxGeometry y="196" width="160" height="26" as="geometry" />
        </mxCell>
          <mxGeometry y="222" width="160" height="8" as="geometry" />
        </mxCell>
          <mxGeometry y="230" width="160" height="26" as="geometry" />
        </mxCell>
          <mxGeometry relative="1" as="geometry" />
        </mxCell>
          <mxGeometry x="0.4149" y="-4" relative="1" as="geometry">
            <mxPoint x="22" y="-8" as="offset" />
          </mxGeometry>
        </mxCell>
      </root>
    </mxGraphModel>
  </diagram>
</mxfile>
